PathFileType	4	(X/Y/Z)	 s08c0103.trc
DataRate	CameraRate	NumFrames	NumMarkers	Units	OrigDataRate	OrigDataStartFrame	OrigNumFrames
200	200	4	50	mm	200	1001	2000
Frame#	Time	racr			lacr			c7			jug			rlel			rdr			llel			ldr			s2			lic			ric			lasi			rasi			rpsi			lpsi			rgt			lgt			rth1			rth2			rth3			rth4			rlfc			rmfc			rsh1			rsh2			rsh3			rsh4			rlmal			rmmal			rcal			rtoe			rmt5			lth1			lth2			lth4			lth3			llfc			lmfc			llmal			lmmal			lcal			lmt5			lsh1			lsh2			lsh3			lsh4			ltoe			SBIKE			LBIKE			RBIKE			
		X1	Y1	Z1	X2	Y2	Z2	X3	Y3	Z3	X4	Y4	Z4	X5	Y5	Z5	X6	Y6	Z6	X7	Y7	Z7	X8	Y8	Z8	X9	Y9	Z9	X10	Y10	Z10	X11	Y11	Z11	X12	Y12	Z12	X13	Y13	Z13	X14	Y14	Z14	X15	Y15	Z15	X16	Y16	Z16	X17	Y17	Z17	X18	Y18	Z18	X19	Y19	Z19	X20	Y20	Z20	X21	Y21	Z21	X22	Y22	Z22	X23	Y23	Z23	X24	Y24	Z24	X25	Y25	Z25	X26	Y26	Z26	X27	Y27	Z27	X28	Y28	Z28	X29	Y29	Z29	X30	Y30	Z30	X31	Y31	Z31	X32	Y32	Z32	X33	Y33	Z33	X34	Y34	Z34	X35	Y35	Z35	X36	Y36	Z36	X37	Y37	Z37	X38	Y38	Z38	X39	Y39	Z39	X40	Y40	Z40	X41	Y41	Z41	X42	Y42	Z42	X43	Y43	Z43	X44	Y44	Z44	X45	Y45	Z45	X46	Y46	Z46	X47	Y47	Z47	X48	Y48	Z48	X49	Y49	Z49	X50	Y50	Z50	
1001	5.0050	543.036222	1333.573370	-29.327762	565.360486	1332.757623	-367.299715	530.227997	1414.036215	-208.766041	491.657223	1254.907960	-195.393707	549.464276	1070.128984	51.473640	784.310802	906.473542	-40.868988	590.043189	1077.683177	-481.786965	800.608640	894.292899	-409.597450	-25.266523	1214.986912	-259.172856	151.507637	1194.527913	-383.102220	109.740566	1230.081309	-74.225375	162.972934	1148.953903	-341.165035	145.175911	1175.604449	-107.068727	1.860558	1259.864358	-210.920824	12.238613	1256.851294	-304.627177	45.590523	1124.137230	-47.669362	94.749912	1087.841847	-423.097631	173.690193	997.743960	-32.966054	251.175536	954.060744	-32.403823	295.987494	879.834284	-39.712209	276.832230	980.645777	-38.287426	381.040337	790.971897	-53.486466	368.157693	777.989779	-165.218829	338.429607	665.039574	-25.854114	351.500133	577.368185	-42.815157	318.876563	497.492279	-49.383077	380.060096	578.505352	-71.736454	299.154898	377.359853	-59.033560	311.704317	402.413666	-146.734160	228.017528	326.958000	-104.627484	517.917077	400.512879	-94.166818	439.330249	342.467894	-31.397792	183.017557	994.975151	-423.458027	256.677547	947.728699	-419.878175	281.675816	970.494583	-407.143590	297.733883	869.053975	-424.463524	349.868085	750.873357	-406.262066	345.948812	725.203471	-297.644908	77.741670	435.517823	-400.805404	109.675619	436.010897	-317.112256	18.618948	458.185921	-357.330788	130.577733	274.982754	-416.360951	272.411645	649.297744	-428.275312	234.009783	577.074348	-411.276444	161.175395	524.378397	-409.489450	252.030644	564.131803	-375.590665	210.745756	242.220087	-347.084940	-188.615909	923.941093	-226.262596	5.674141	83.339484	-426.625120	-0.954472	80.442017	-28.584181	
1002	5.0100	544.152770	1332.799962	-29.329821	565.257932	1331.573455	-367.480134	530.057661	1413.882163	-208.314176	492.697941	1254.427970	-196.416009	550.102281	1069.387549	52.068968	784.318493	905.522106	-41.064092	589.965314	1076.998785	-481.860194	800.708467	894.007229	-409.499074	-24.611563	1212.815428	-257.196183	151.295561	1193.727256	-380.753123	111.300941	1226.579903	-71.895674	163.524666	1148.188747	-339.163207	146.812237	1172.088856	-104.542967	2.510133	1256.998135	-207.441483	12.610167	1254.979509	-302.234308	46.083817	1119.339713	-46.350268	97.370513	1087.895244	-421.925857	172.451886	990.515402	-32.202761	249.140965	945.570622	-31.711288	292.339102	870.518125	-39.853482	275.289470	971.588722	-36.935131	376.989999	781.266316	-53.147075	364.351528	767.968019	-164.097602	335.196299	654.820772	-25.469058	349.759293	567.379589	-42.625646	318.410049	486.956006	-49.583099	378.513039	568.904864	-71.289295	300.286636	366.407133	-59.235353	312.477891	391.821693	-146.938342	229.214672	316.205081	-105.100217	519.324223	389.191677	-94.390595	440.493622	331.458522	-31.598786	186.687988	996.487072	-422.175060	261.643609	951.439183	-419.498316	285.468193	973.556025	-403.996206	303.933865	872.941794	-422.634116	357.409278	756.172757	-404.402590	352.939680	730.259730	-295.843038	79.151918	446.494287	-400.671707	114.063305	444.106588	-316.675820	20.145735	469.959691	-357.259720	129.603730	285.261338	-416.459798	278.558088	655.970449	-426.877248	238.400068	584.601969	-410.067642	164.529671	533.500625	-408.752153	256.063402	571.265973	-374.322083	209.422529	251.442657	-347.121891	-188.505510	923.944952	-226.450915	5.684075	83.289974	-426.658740	-0.955870	80.396206	-28.629453	
1003	5.0150	545.338543	1332.236873	-29.633124	565.033999	1330.500092	-368.087857	529.813766	1413.902962	-207.753486	493.530048	1254.024057	-197.318719	551.123069	1069.214004	52.809287	784.529780	904.680205	-41.205752	590.056301	1076.522615	-482.036446	800.897293	893.698802	-409.325108	-23.808537	1211.131545	-255.250494	151.114268	1193.041944	-378.524619	113.014507	1223.133730	-69.412862	164.124830	1147.554360	-337.087217	148.497722	1168.453033	-101.948958	2.560927	1254.412713	-203.073506	12.875026	1253.000563	-299.487734	46.795119	1114.271485	-45.047094	99.674165	1088.246674	-420.758887	171.503828	983.397107	-31.388681	247.500712	937.197528	-31.006823	288.970537	861.146069	-39.960233	273.908152	962.493285	-35.824224	372.842202	771.285780	-53.375168	358.956785	756.190747	-163.116745	331.804809	644.210423	-25.291068	347.643479	557.068344	-42.562308	317.533589	476.246337	-49.762008	376.617193	558.987700	-70.926267	300.833857	355.672984	-59.236026	312.988249	380.998234	-147.074219	230.388859	305.002655	-105.966251	520.131300	377.826841	-94.604857	441.123702	320.269201	-31.828181	190.105145	998.007704	-420.993604	265.910823	954.499076	-417.374930	289.168987	976.866040	-400.884497	309.903543	877.002956	-420.715025	365.048721	761.814676	-402.691205	359.917921	735.539274	-293.947848	81.068771	457.421563	-400.497288	115.036345	454.308433	-317.066611	22.015803	481.761924	-357.432252	129.387830	295.648104	-416.390020	284.672070	663.044165	-425.377275	242.968254	592.380352	-408.965240	168.135505	542.750734	-407.895162	260.270702	578.324819	-372.999562	208.704067	260.861665	-347.246595	-188.442115	924.011381	-226.503745	5.690415	83.244633	-426.659949	-0.943783	80.353819	-28.660953	
1004	5.0200	546.661178	1331.995223	-29.976624	564.426929	1329.518249	-368.860678	529.531713	1414.142518	-207.411478	494.374590	1253.940325	-198.351235	552.697911	1069.459806	53.547524	784.922884	904.013744	-41.372210	590.319946	1076.307130	-482.205253	801.185940	893.462628	-409.128971	-23.175679	1209.184592	-252.465644	150.861984	1192.621236	-376.275586	114.878927	1219.668033	-66.773757	164.649792	1147.096463	-334.954537	150.368220	1164.138283	-98.982928	2.593296	1250.975583	-197.301130	12.947180	1251.441631	-296.321041	47.673087	1109.145471	-43.635940	101.605033	1088.764438	-419.538691	170.713815	976.194139	-30.714044	245.778909	928.490968	-30.614307	285.754683	851.893260	-40.191542	272.611261	953.341609	-34.988536	367.987059	761.447880	-54.079826	355.577743	747.197590	-163.394544	328.277950	633.598312	-25.385098	345.190255	546.760247	-42.633150	316.220914	465.439090	-49.891174	374.314515	548.980853	-70.820521	300.837993	344.968026	-59.083166	313.003686	370.125023	-147.067670	230.273722	294.596432	-105.971958	520.269655	366.386086	-94.929022	441.073334	309.205390	-32.008274	193.181477	999.506781	-420.030673	269.890368	957.671467	-415.413389	292.376631	980.465214	-398.429607	315.769367	881.290603	-418.811277	382.435271	774.043927	-412.095329	366.851552	741.041633	-291.990079	83.563173	468.294301	-400.343186	118.085034	464.468999	-316.163345	24.514144	493.158817	-357.281330	129.838998	306.134550	-416.353741	290.791311	670.073141	-423.289075	246.801025	598.640089	-405.284267	171.978185	552.236685	-407.058788	264.834737	585.860288	-372.008815	208.779434	270.519254	-347.290914	-188.395259	923.866177	-227.089042	5.723827	83.211659	-426.662737	-0.950506	80.190930	-28.769056	
